<mxfile host="app.diagrams.net" agent="Mozilla/5.0 (Windows NT 10.0; Win64; x64) AppleWebKit/537.36 (KHTML, like Gecko) Chrome/138.0.0.0 Safari/537.36" version="28.0.7">
  <diagram name="第 1 页" id="kV9COQtEdjSg4Tln8vBq">
    <mxGraphModel dx="2253" dy="1920" grid="1" gridSize="10" guides="1" tooltips="1" connect="1" arrows="1" fold="1" page="1" pageScale="1" pageWidth="827" pageHeight="1169" math="0" shadow="0">
      <root>
        <mxCell id="0" />
        <mxCell id="1" parent="0" />
        <mxCell id="X_AKitEpWE8lfrndj9nI-23" value="" style="rounded=0;whiteSpace=wrap;html=1;" parent="1" vertex="1">
          <mxGeometry x="-60" y="470" width="230" height="130" as="geometry" />
        </mxCell>
        <mxCell id="X_AKitEpWE8lfrndj9nI-20" value="团伙" style="rounded=0;whiteSpace=wrap;html=1;fillColor=#fff2cc;strokeColor=#d6b656;" parent="1" vertex="1">
          <mxGeometry x="-30" y="270" width="480" height="130" as="geometry" />
        </mxCell>
        <mxCell id="X_AKitEpWE8lfrndj9nI-19" style="edgeStyle=orthogonalEdgeStyle;rounded=0;orthogonalLoop=1;jettySize=auto;html=1;" parent="1" source="X_AKitEpWE8lfrndj9nI-2" target="X_AKitEpWE8lfrndj9nI-7" edge="1">
          <mxGeometry relative="1" as="geometry">
            <Array as="points">
              <mxPoint x="55" y="230" />
              <mxPoint x="399" y="230" />
            </Array>
          </mxGeometry>
        </mxCell>
        <mxCell id="X_AKitEpWE8lfrndj9nI-2" value="Actor" style="shape=umlActor;verticalLabelPosition=bottom;verticalAlign=top;html=1;outlineConnect=0;fillColor=#fff2cc;strokeColor=#d6b656;" parent="1" vertex="1">
          <mxGeometry x="40" y="300" width="30" height="60" as="geometry" />
        </mxCell>
        <mxCell id="X_AKitEpWE8lfrndj9nI-3" value="Actor" style="shape=umlActor;verticalLabelPosition=bottom;verticalAlign=top;html=1;outlineConnect=0;fillColor=#fff2cc;strokeColor=#d6b656;" parent="1" vertex="1">
          <mxGeometry x="140" y="300" width="30" height="60" as="geometry" />
        </mxCell>
        <mxCell id="X_AKitEpWE8lfrndj9nI-4" value="Actor" style="shape=umlActor;verticalLabelPosition=bottom;verticalAlign=top;html=1;outlineConnect=0;fillColor=#fff2cc;strokeColor=#d6b656;" parent="1" vertex="1">
          <mxGeometry x="260" y="300" width="30" height="60" as="geometry" />
        </mxCell>
        <mxCell id="X_AKitEpWE8lfrndj9nI-5" value="Actor" style="shape=umlActor;verticalLabelPosition=bottom;verticalAlign=top;html=1;outlineConnect=0;fillColor=#fff2cc;strokeColor=#d6b656;" parent="1" vertex="1">
          <mxGeometry x="390" y="300" width="30" height="60" as="geometry" />
        </mxCell>
        <mxCell id="X_AKitEpWE8lfrndj9nI-10" style="edgeStyle=orthogonalEdgeStyle;rounded=0;orthogonalLoop=1;jettySize=auto;html=1;" parent="1" source="X_AKitEpWE8lfrndj9nI-7" target="X_AKitEpWE8lfrndj9nI-8" edge="1">
          <mxGeometry relative="1" as="geometry" />
        </mxCell>
        <mxCell id="X_AKitEpWE8lfrndj9nI-32" style="rounded=0;orthogonalLoop=1;jettySize=auto;html=1;dashed=1;" parent="1" source="X_AKitEpWE8lfrndj9nI-7" edge="1">
          <mxGeometry relative="1" as="geometry">
            <mxPoint x="620" y="70" as="targetPoint" />
          </mxGeometry>
        </mxCell>
        <mxCell id="X_AKitEpWE8lfrndj9nI-7" value="C" style="shape=umlActor;verticalLabelPosition=bottom;verticalAlign=top;html=1;outlineConnect=0;fillColor=#dae8fc;strokeColor=#6c8ebf;dashed=1;" parent="1" vertex="1">
          <mxGeometry x="384" y="120" width="30" height="60" as="geometry" />
        </mxCell>
        <mxCell id="X_AKitEpWE8lfrndj9nI-8" value="CC" style="shape=umlActor;verticalLabelPosition=bottom;verticalAlign=top;html=1;outlineConnect=0;fillColor=#f8cecc;strokeColor=#b85450;dashed=1;" parent="1" vertex="1">
          <mxGeometry x="384" y="-60" width="30" height="60" as="geometry" />
        </mxCell>
        <mxCell id="X_AKitEpWE8lfrndj9nI-39" style="edgeStyle=orthogonalEdgeStyle;rounded=0;orthogonalLoop=1;jettySize=auto;html=1;curved=1;dashed=1;" parent="1" source="X_AKitEpWE8lfrndj9nI-11" edge="1">
          <mxGeometry relative="1" as="geometry">
            <mxPoint x="420" y="160" as="targetPoint" />
            <Array as="points">
              <mxPoint x="575" y="240" />
              <mxPoint x="421" y="240" />
            </Array>
          </mxGeometry>
        </mxCell>
        <mxCell id="X_AKitEpWE8lfrndj9nI-40" value="上位" style="edgeLabel;html=1;align=center;verticalAlign=middle;resizable=0;points=[];" parent="X_AKitEpWE8lfrndj9nI-39" vertex="1" connectable="0">
          <mxGeometry x="-0.2585" y="3" relative="1" as="geometry">
            <mxPoint as="offset" />
          </mxGeometry>
        </mxCell>
        <mxCell id="X_AKitEpWE8lfrndj9nI-11" value="Actor" style="shape=umlActor;verticalLabelPosition=bottom;verticalAlign=top;html=1;outlineConnect=0;fillColor=#fff2cc;strokeColor=default;" parent="1" vertex="1">
          <mxGeometry x="560" y="300" width="30" height="60" as="geometry" />
        </mxCell>
        <mxCell id="X_AKitEpWE8lfrndj9nI-12" value="Actor" style="shape=umlActor;verticalLabelPosition=bottom;verticalAlign=top;html=1;outlineConnect=0;" parent="1" vertex="1">
          <mxGeometry x="40" y="490" width="30" height="60" as="geometry" />
        </mxCell>
        <mxCell id="X_AKitEpWE8lfrndj9nI-13" value="我" style="shape=umlActor;verticalLabelPosition=bottom;verticalAlign=top;html=1;outlineConnect=0;" parent="1" vertex="1">
          <mxGeometry x="-30" y="490" width="30" height="60" as="geometry" />
        </mxCell>
        <mxCell id="X_AKitEpWE8lfrndj9nI-14" value="Actor" style="shape=umlActor;verticalLabelPosition=bottom;verticalAlign=top;html=1;outlineConnect=0;" parent="1" vertex="1">
          <mxGeometry x="110" y="490" width="30" height="60" as="geometry" />
        </mxCell>
        <mxCell id="X_AKitEpWE8lfrndj9nI-24" style="edgeStyle=orthogonalEdgeStyle;rounded=0;orthogonalLoop=1;jettySize=auto;html=1;" parent="1" source="X_AKitEpWE8lfrndj9nI-23" target="X_AKitEpWE8lfrndj9nI-2" edge="1">
          <mxGeometry relative="1" as="geometry" />
        </mxCell>
        <mxCell id="X_AKitEpWE8lfrndj9nI-25" value="" style="endArrow=none;dashed=1;html=1;dashPattern=1 3;strokeWidth=2;rounded=0;" parent="1" source="X_AKitEpWE8lfrndj9nI-2" target="X_AKitEpWE8lfrndj9nI-11" edge="1">
          <mxGeometry width="50" height="50" relative="1" as="geometry">
            <mxPoint x="390" y="330" as="sourcePoint" />
            <mxPoint x="440" y="280" as="targetPoint" />
            <Array as="points">
              <mxPoint x="320" y="490" />
            </Array>
          </mxGeometry>
        </mxCell>
        <mxCell id="X_AKitEpWE8lfrndj9nI-26" value="敌对" style="edgeLabel;html=1;align=center;verticalAlign=middle;resizable=0;points=[];spacing=3;fontSize=14;" parent="X_AKitEpWE8lfrndj9nI-25" vertex="1" connectable="0">
          <mxGeometry x="-0.0469" y="4" relative="1" as="geometry">
            <mxPoint as="offset" />
          </mxGeometry>
        </mxCell>
        <mxCell id="X_AKitEpWE8lfrndj9nI-31" value="" style="endArrow=none;dashed=1;html=1;dashPattern=1 3;strokeWidth=2;rounded=0;" parent="1" edge="1">
          <mxGeometry width="50" height="50" relative="1" as="geometry">
            <mxPoint x="410" y="-20" as="sourcePoint" />
            <mxPoint x="620" y="60" as="targetPoint" />
          </mxGeometry>
        </mxCell>
        <mxCell id="X_AKitEpWE8lfrndj9nI-33" value="出走创业" style="text;html=1;align=center;verticalAlign=middle;resizable=0;points=[];autosize=1;strokeColor=none;fillColor=none;" parent="1" vertex="1">
          <mxGeometry x="625" y="50" width="70" height="30" as="geometry" />
        </mxCell>
        <mxCell id="X_AKitEpWE8lfrndj9nI-37" style="edgeStyle=orthogonalEdgeStyle;rounded=0;orthogonalLoop=1;jettySize=auto;html=1;entryX=0;entryY=0.3333333333333333;entryDx=0;entryDy=0;entryPerimeter=0;curved=1;dashed=1;" parent="1" source="X_AKitEpWE8lfrndj9nI-7" target="X_AKitEpWE8lfrndj9nI-2" edge="1">
          <mxGeometry relative="1" as="geometry" />
        </mxCell>
        <mxCell id="X_AKitEpWE8lfrndj9nI-38" value="挖人" style="edgeLabel;html=1;align=center;verticalAlign=middle;resizable=0;points=[];" parent="X_AKitEpWE8lfrndj9nI-37" vertex="1" connectable="0">
          <mxGeometry x="-0.0361" y="23" relative="1" as="geometry">
            <mxPoint as="offset" />
          </mxGeometry>
        </mxCell>
        <mxCell id="X_AKitEpWE8lfrndj9nI-41" style="edgeStyle=orthogonalEdgeStyle;rounded=0;orthogonalLoop=1;jettySize=auto;html=1;entryX=0;entryY=0.3333333333333333;entryDx=0;entryDy=0;entryPerimeter=0;dashed=1;curved=1;" parent="1" source="X_AKitEpWE8lfrndj9nI-8" target="X_AKitEpWE8lfrndj9nI-7" edge="1">
          <mxGeometry relative="1" as="geometry">
            <Array as="points">
              <mxPoint x="370" y="-30" />
              <mxPoint x="370" y="50" />
              <mxPoint x="330" y="50" />
              <mxPoint x="330" y="140" />
            </Array>
          </mxGeometry>
        </mxCell>
        <mxCell id="X_AKitEpWE8lfrndj9nI-42" value="挖人" style="text;html=1;align=center;verticalAlign=middle;resizable=0;points=[];autosize=1;strokeColor=none;fillColor=none;" parent="1" vertex="1">
          <mxGeometry x="305" y="58" width="50" height="30" as="geometry" />
        </mxCell>
      </root>
    </mxGraphModel>
  </diagram>
</mxfile>
